# xmcd
#
# Track frame offsets:
#	183
#	16203
#	57708
#	76233
#	101470
#	124645
#	150440
#	161433
#	212883
#	229308
#	254208
#	278845
#	295570
#	318108
#
# Disc length: 4465 seconds
#
# Revision: 7
# Processed by: cddbd v1.5.2PL0 Copyright (c) Steve Scherf et al.
# Submitted via: EZCDAudioConverter 1.3.4.1
#
DISCID=bb116f0e
DTITLE=Richard Thompson - Watching The Dark 1/3
DYEAR=1993
DGENRE=
TTITLE0=Richard Thompson - A Man In Need
TTITLE1=Richard Thompson - Can't Win [Live]
TTITLE2=Richard Thompson - Waltzing's For Dreamers
TTITLE3=Richard Thompson - Crash The Party [Live]
TTITLE4=Richard Thompson - I Still Dream
TTITLE5=Richard Thompson - Bird In God's Garden - Lost And Found
TTITLE6=Fairport Convention - Now Be Thankful
TTITLE7=Fairport Convention - A Sailor's Life
TTITLE8=Fairport Convention - Genesis Hall
TTITLE9=Richard Thompson - The Knife-Edge
TTITLE10=Richard Thompson - Walking On A Wire
TTITLE11=Richard Thompson - Small Town Romance [Live]
TTITLE12=Richard Thompson - Shepherd's March - Maggie Cameron [Live]
TTITLE13=Richard Thompson - Wall Of Death
EXTD=
EXTT0=
EXTT1=
EXTT2=
EXTT3=
EXTT4=
EXTT5=
EXTT6=
EXTT7=
EXTT8=
EXTT9=
EXTT10=
EXTT11=
EXTT12=
EXTT13=
PLAYORDER=
